<?xml version="1.0" encoding="utf-8"?>
<svg version="1.1" xmlns:xlink="http://www.w3.org/1999/xlink" width="300px" height="171px" xmlns="http://www.w3.org/2000/svg">
  <defs>
    <mask fill="white" id="clip4">
      <path d="M 34 563  L 34 397  C 34 394.225  36.225 392  39 392  L 329 392  C 331.775 392  334 394.225  334 397  L 334 563  " fill-rule="evenodd" />
    </mask>
  </defs>
  <g transform="matrix(1 0 0 1 -34 -392 )">
    <path d="M 34 392  L 334 392  L 334 563  L 34 563  L 34 392  " fill-rule="nonzero" fill="#cccccc" stroke="none" mask="url(#clip4)" />
    <path d="M 46 404  L 322 404  L 322 551  L 46 551  L 46 404  " fill-rule="nonzero" fill="#ffffff" stroke="none" mask="url(#clip4)" />
    <path d="M 202.825 443.3  C 195.643 443.3  190 437.657  190 430.475  C 190 423.293  195.643 417.65  202.825 417.65  C 210.007 417.65  215.65 423.293  215.65 430.475  C 215.65 437.657  210.007 443.3  202.825 443.3  " fill-rule="nonzero" fill="#cccccc" stroke="none" mask="url(#clip4)" />
    <path d="M 51 547  L 51 471.1  L 117.75 436.6  L 211.2 499.804  L 264.6 457.3  L 318 499.804  L 318 547  L 51 547  " fill-rule="nonzero" fill="#169bd5" stroke="none" mask="url(#clip4)" />
  </g>
</svg>