<?xml version="1.0" encoding="utf-8"?>
<svg version="1.1" xmlns:xlink="http://www.w3.org/1999/xlink" width="16px" height="16px" xmlns="http://www.w3.org/2000/svg">
  <g transform="matrix(1 0 0 1 -360 -297 )">
    <path d="M 15.875 14.525  C 15.8609375 14.525  11.375 10.025  11.375 10.025  L 10.6578125 10.025  L 10.4046875 9.771875  C 11.290625 8.7453125  11.8109375 7.4234375  11.8109375 5.975  C 11.8109375 2.740625  9.1953125 0.125  5.9609375 0.125  C 2.7265625 0.125  0.1390625 2.7546875  0.1390625 5.975  C 0.1390625 9.1953125  2.7546875 11.825  5.9890625 11.825  C 7.4375 11.825  8.7734375 11.290625  9.7859375 10.41875  L 10.0390625 10.671875  L 10.0390625 11.375  L 14.5390625 15.8609375  L 15.875 14.525  Z M 10.025 5.975  C 10.025 8.2109375  8.2109375 10.025  5.975 10.025  C 3.7390625 10.025  1.925 8.2109375  1.925 5.975  C 1.925 3.7390625  3.7390625 1.925  5.975 1.925  C 8.2109375 1.925  10.025 3.7390625  10.025 5.975  Z " fill-rule="nonzero" fill="#000000" stroke="none" transform="matrix(1 0 0 1 360 297 )" />
  </g>
</svg>