<?xml version="1.0" encoding="utf-8"?>
<svg version="1.1" xmlns:xlink="http://www.w3.org/1999/xlink" width="124px" height="181px" xmlns="http://www.w3.org/2000/svg">
  <g transform="matrix(1 0 0 1 -121 -166 )">
    <path d="M 62 30.0864361702128  C 78.674609375 30.0864361702128  92.2734375 43.6012632978724  92.2734375 60.1728723404255  C 92.2734375 76.7444813829787  78.674609375 90.2593085106383  62 90.2593085106383  C 45.325390625 90.2593085106383  31.7265625 76.7444813829787  31.7265625 60.1728723404255  C 31.7265625 43.6012632978724  45.325390625 30.0864361702128  62 30.0864361702128  Z M 122.546875 60.1728723404255  C 122.546875 26.9153257978723  95.4642578125 0  62 0  C 28.5357421875 0  1.453125 26.9153257978723  1.453125 60.1728723404255  C 1.453125 67.3394614361702  2.2826171875 74.7467420212766  5.3583984375 81.2093085106383  L 48.5162109375 172.17263962766  C 50.88359375 177.347506648936  56.3267578125 180.518617021277  62 180.518617021277  C 67.679296875 180.518617021277  73.11640625 177.347506648936  75.598828125 172.17263962766  L 118.6416015625 81.2093085106383  C 121.7173828125 74.7467420212766  122.546875 67.3394614361702  122.546875 60.1728723404255  Z " fill-rule="nonzero" fill="#70b603" stroke="none" transform="matrix(1 0 0 1 121 166 )" />
  </g>
</svg>