<?xml version="1.0" encoding="utf-8"?>
<svg version="1.1" xmlns:xlink="http://www.w3.org/1999/xlink" width="64px" height="94px" xmlns="http://www.w3.org/2000/svg">
  <g transform="matrix(1 0 0 1 -104 -222 )">
    <path d="M 32 15.625  C 40.60625 15.625  47.625 22.64375  47.625 31.25  C 47.625 39.85625  40.60625 46.875  32 46.875  C 23.39375 46.875  16.375 39.85625  16.375 31.25  C 16.375 22.64375  23.39375 15.625  32 15.625  Z M 63.25 31.25  C 63.25 13.978125  49.271875 0  32 0  C 14.728125 0  0.75 13.978125  0.75 31.25  C 0.75 34.971875  1.178125 38.81875  2.765625 42.175  L 25.040625 89.415625  C 26.2625 92.103125  29.071875 93.75  32 93.75  C 34.93125 93.75  37.7375 92.103125  39.01875 89.415625  L 61.234375 42.175  C 62.821875 38.81875  63.25 34.971875  63.25 31.25  Z " fill-rule="nonzero" fill="#70b603" stroke="none" transform="matrix(1 0 0 1 104 222 )" />
  </g>
</svg>