<?xml version="1.0" encoding="utf-8"?>
<svg version="1.1" xmlns:xlink="http://www.w3.org/1999/xlink" width="40px" height="58px" xmlns="http://www.w3.org/2000/svg">
  <g transform="matrix(1 0 0 1 -288 -162 )">
    <path d="M 20 9.64095744680851  C 25.37890625 9.64095744680851  29.765625 13.9716755319149  29.765625 19.281914893617  C 29.765625 24.5921542553191  25.37890625 28.9228723404255  20 28.9228723404255  C 14.62109375 28.9228723404255  10.234375 24.5921542553191  10.234375 19.281914893617  C 10.234375 13.9716755319149  14.62109375 9.64095744680851  20 9.64095744680851  Z M 39.53125 19.281914893617  C 39.53125 8.62480053191489  30.794921875 0  20 0  C 9.205078125 0  0.46875 8.62480053191489  0.46875 19.281914893617  C 0.46875 21.5783909574468  0.736328124999999 23.9519946808511  1.728515625 26.0228723404255  L 15.650390625 55.1713430851064  C 16.4140625 56.8295877659574  18.169921875 57.8457446808511  20 57.8457446808511  C 21.83203125 57.8457446808511  23.5859375 56.8295877659574  24.38671875 55.1713430851064  L 38.271484375 26.0228723404255  C 39.263671875 23.9519946808511  39.53125 21.5783909574468  39.53125 19.281914893617  Z " fill-rule="nonzero" fill="#70b603" stroke="none" transform="matrix(1 0 0 1 288 162 )" />
  </g>
</svg>