<?xml version="1.0" encoding="utf-8"?>
<svg version="1.1" xmlns:xlink="http://www.w3.org/1999/xlink" width="23px" height="34px" xmlns="http://www.w3.org/2000/svg">
  <g transform="matrix(1 0 0 1 -75 -93 )">
    <path d="M 11.5 5.65159574468085  C 14.59287109375 5.65159574468085  17.115234375 8.19029255319149  17.115234375 11.3031914893617  C 17.115234375 14.4160904255319  14.59287109375 16.9547872340426  11.5 16.9547872340426  C 8.40712890625 16.9547872340426  5.884765625 14.4160904255319  5.884765625 11.3031914893617  C 5.884765625 8.19029255319149  8.40712890625 5.65159574468085  11.5 5.65159574468085  Z M 22.73046875 11.3031914893617  C 22.73046875 5.05591755319149  17.707080078125 0  11.5 0  C 5.292919921875 0  0.26953125 5.05591755319149  0.26953125 11.3031914893617  C 0.26953125 12.6494015957447  0.423388671874999 14.0408244680851  0.993896484375 15.2547872340426  L 8.998974609375 32.3418218085106  C 9.4380859375 33.3138962765957  10.447705078125 33.9095744680851  11.5 33.9095744680851  C 12.55341796875 33.9095744680851  13.5619140625 33.3138962765957  14.02236328125 32.3418218085106  L 22.006103515625 15.2547872340426  C 22.576611328125 14.0408244680851  22.73046875 12.6494015957447  22.73046875 11.3031914893617  Z " fill-rule="nonzero" fill="#70b603" stroke="none" transform="matrix(1 0 0 1 75 93 )" />
  </g>
</svg>