<?xml version="1.0" encoding="utf-8"?>
<svg version="1.1" xmlns:xlink="http://www.w3.org/1999/xlink" width="61px" height="61px" xmlns="http://www.w3.org/2000/svg">
  <g transform="matrix(1 0 0 1 -178 -276 )">
    <path d="M 27.2450719203431 1.62824597936893  C 29.1903739357874 0.245408125228265  31.8096260642126 0.245408125228265  33.7549280796569 1.62824597936893  L 57.1438431372549 18.2526213592233  C 59.4390672657156 19.8839847039289  60.8002744669505 22.5103050367733  60 25.3080906395631  L 60 52.1165048543689  C 60.8006535698529 56.9135922330097  56.8735294117647 60.8025889720874  52.0294117647059 60  L 40 60  L 40 48.1682848143204  C 40.0686274509804 42.935313940534  35.7842745098039 38.6925566589806  30.5 38.6925566589806  C 25.2157254901961 38.6925566589806  20.9313725490196 42.935313940534  21 48.1682848143204  L 21 60  L 8.97058823529412 60  C 4.12647058823529 60.8025889720874  0.199346430147059 56.9135922330097  1 52.1165048543689  L 1 25.3088802342233  C 0.199468707198967 22.5108160619744  1.56070423865847 19.8841471446572  3.8561568627451 18.2526213592233  L 27.2450719203431 1.62824597936893  Z " fill-rule="nonzero" fill="#d9001b" stroke="none" transform="matrix(1 0 0 1 178 276 )" />
  </g>
</svg>