<?xml version="1.0" encoding="utf-8"?>
<svg version="1.1" xmlns:xlink="http://www.w3.org/1999/xlink" width="170px" height="170px" xmlns="http://www.w3.org/2000/svg">
  <g transform="matrix(1 0 0 1 -127 -1134 )">
    <path d="M 212 1134  C 259.6 1134  297 1171.4  297 1219  C 297 1266.6  259.6 1304  212 1304  C 164.4 1304  127 1266.6  127 1219  C 127 1171.4  164.4 1134  212 1134  Z " fill-rule="nonzero" fill="#ffffff" stroke="none" fill-opacity="0" />
    <path d="M 212 1134.5  C 259.32 1134.5  296.5 1171.68  296.5 1219  C 296.5 1266.32  259.32 1303.5  212 1303.5  C 164.68 1303.5  127.5 1266.32  127.5 1219  C 127.5 1171.68  164.68 1134.5  212 1134.5  Z " stroke-width="1" stroke="#797979" fill="none" />
  </g>
</svg>